<svg xmlns="http://www.w3.org/2000/svg" viewBox="0 0 210.89 31.19"><defs><style>.cls-1{fill:#e41c20;}.cls-2{fill:#fff;}</style></defs><g id="Capa_2" data-name="Capa 2"><g id="Capa_1-2" data-name="Capa 1"><rect class="cls-1" x="20.97" y="0.42" width="168.95" height="30.18"/><rect class="cls-1" x="15.03" width="3.03" height="31.19"/><rect class="cls-1" x="10.04" width="3.03" height="21.39"/><rect class="cls-1" x="5.35" width="3.03" height="14.85"/><rect class="cls-1" width="3.03" height="6.24"/><rect class="cls-1" x="192.83" width="3.03" height="31.19" transform="translate(388.69 31.19) rotate(-180)"/><rect class="cls-1" x="197.82" width="3.03" height="21.39" transform="translate(398.67 21.39) rotate(-180)"/><rect class="cls-1" x="202.51" width="3.03" height="14.85" transform="translate(408.06 14.85) rotate(-180)"/><rect class="cls-1" x="207.86" width="3.03" height="6.24" transform="translate(418.75 6.24) rotate(-180)"/><path class="cls-2" d="M29.13,9.09h5.21c2.82,0,4.31,1.48,4.31,3.58a2.87,2.87,0,0,1-1.88,2.93,3.57,3.57,0,0,1,2.36,3.51c0,2.74-2,4.27-4.93,4.27H29.13Zm4.75,5.76c1.77,0,2.51-.65,2.51-2s-.83-2-2.36-2H31.41v4Zm-2.47,6.74H34c1.57,0,2.75-.76,2.75-2.47s-1-2.46-3-2.46H31.41Z"/><path class="cls-2" d="M43.83,19.49l-1.19,3.89H40.35c.57-1.72,3.81-12.34,4.46-14.29h3l4.67,14.29H50l-1.25-3.89Zm4.43-2c-1-3.28-1.72-5.37-2-6.61h0c-.36,1.63-1.05,3.85-1.91,6.61Z"/><path class="cls-2" d="M54.33,23.38V9.09h3C62.24,18.51,63,19.9,63.2,20.55h0c-.14-1.8-.16-4.11-.16-6.44v-5h2.14V23.38H62.39c-5.26-10.26-5.74-11.29-6-11.86h0c.1,1.82.1,4.24.1,6.8v5.06Z"/><path class="cls-2" d="M68.61,9.09h2.27V16c1.53-1.86,4-4.86,5.7-6.89h2.77l-5.06,5.83,5.36,8.46H76.88L72.7,16.47,70.9,18.4v5H68.61Z"/><path class="cls-2" d="M83.24,19.49l-1.19,3.89H79.76c.57-1.72,3.81-12.34,4.46-14.29h3l4.67,14.29H89.41l-1.25-3.89Zm4.43-2c-1-3.28-1.72-5.37-2-6.61h0c-.36,1.63-1.05,3.85-1.91,6.61Z"/><path class="cls-2" d="M96.06,9.09V23.38H93.74V9.09Z"/><path class="cls-2" d="M104.32,9.09h5c2.66,0,4.79,1.38,4.79,4.11,0,2.88-2,4.33-5,4.33h-2.41v5.85h-2.32Zm2.32,6.58h2.28c1.71,0,2.8-.62,2.8-2.43,0-1.58-1.11-2.28-2.74-2.28h-2.34Z"/><path class="cls-2" d="M118.61,17.16v6.22h-2.29V9.09h5.37c2.61,0,4.43,1.3,4.43,3.77a3.24,3.24,0,0,1-2.27,3.34c1.45.51,2,1.66,2,3.53v.32a22,22,0,0,0,.19,3.33h-2.25a13,13,0,0,1-.25-3.34V19.7c0-1.84-.66-2.54-2.76-2.54Zm0-1.87H121c1.63,0,2.82-.47,2.82-2.25,0-1.43-1-2.08-2.42-2.08h-2.77Z"/><path class="cls-2" d="M140.37,16.15c0,4.15-1.92,7.44-6.21,7.44-4.12,0-6-3.23-6-7.45,0-3.69,1.92-7.24,6.21-7.24C138.42,8.9,140.37,12.13,140.37,16.15Zm-9.84,0c0,3.14,1.23,5.57,3.74,5.57,2.67,0,3.72-2.33,3.72-5.54,0-3-1.06-5.37-3.74-5.37S130.53,13.15,130.53,16.13Z"/><path class="cls-2" d="M146.34,19.06c0,2.68-.79,4.5-3.82,4.5a8.15,8.15,0,0,1-1.49-.12V21.57a8.38,8.38,0,0,0,1.19.07c1.55,0,1.8-1,1.8-2.5v-10h2.32Z"/><path class="cls-2" d="M158,16.88h-6.25v4.56h6.89l-.3,1.94h-8.86V9.09h8.79V11h-6.52v3.89H158Z"/><path class="cls-2" d="M171.58,19.07a5.09,5.09,0,0,1-5.41,4.52c-4.32,0-5.87-3.25-5.87-7.41,0-3.91,1.91-7.28,6-7.28,3.56,0,5,2.26,5.22,4.52h-2.29c-.31-1.39-1-2.62-3-2.62-2.57,0-3.52,2.57-3.52,5.38s.82,5.52,3.54,5.52c2,0,2.71-1.32,3.06-2.63Z"/><path class="cls-2" d="M176.74,11h-4V9.09h10.33V11h-4V23.38h-2.34Z"/></g></g></svg>