<svg xmlns="http://www.w3.org/2000/svg" viewBox="0 0 210.89 224.93"><defs><style>.cls-1{fill:#e41c20;}.cls-2{fill:#fff;}</style></defs><g id="Capa_2" data-name="Capa 2"><g id="Capa_1-2" data-name="Capa 1"><path class="cls-1" d="M83.84,136.2l-.56.19a3.23,3.23,0,0,0-2.17,3.23l1.41,24.71a9,9,0,0,0,2.61,5.84l13.25,13.25a2.78,2.78,0,0,0,2,.81h1.33a2.16,2.16,0,0,0,2.16-2.15l.21-35.5L87.8,136.64A4.68,4.68,0,0,0,83.84,136.2Z"/><path class="cls-1" d="M74.65,133.17l-11.14-5.35a2.37,2.37,0,0,0-.94-.23l-6.21-.18a2.32,2.32,0,0,0-1.48.47l-.47.35a2.34,2.34,0,0,0-.93,1.77l-.15,3.74a2.27,2.27,0,0,0,.13.89l6.89,19.5a2.31,2.31,0,0,0,.92,1.17l9.89,6.58a2.41,2.41,0,0,0,1.3.39h3.33a2.34,2.34,0,0,0,2.33-2.55L76,135.08A2.36,2.36,0,0,0,74.65,133.17Z"/><path class="cls-1" d="M201.36,50.39,153.32.88A2.93,2.93,0,0,0,151.23,0H59.66a2.93,2.93,0,0,0-2.09.88l-48,49.51a4.22,4.22,0,0,0-1.21,3v5.2a8.05,8.05,0,0,0,1.07,4L25.85,91.35a1.37,1.37,0,0,0,1.87.51l11.69-6.69A2.83,2.83,0,0,0,40.83,83l.39-4.6a7.26,7.26,0,0,0-.77-3.93c-1.4-2.77-3.7-8.46-2.25-13.84,2-7.49,11.17-16.16,24.3-11.53S84.42,74.18,80.74,85.23s-13.43,8.68-13.43,8.68a39.44,39.44,0,0,1-14.06-5.25,3.27,3.27,0,0,0-3.15-.09l-10,5.1a3.28,3.28,0,0,0-1.73,2.24L35.06,110.8a3.59,3.59,0,0,0,1.26,3.56l11.34,9a2.78,2.78,0,0,0,1.73.61h12.4s12.4-.64,21.66,6.39A51.47,51.47,0,0,0,88,133.53L95.47,138a7.23,7.23,0,0,0,3.73,1h12.49a7.23,7.23,0,0,0,3.73-1l7.46-4.49a51.47,51.47,0,0,0,4.56-3.17c9.26-7,21.66-6.39,21.66-6.39h12.4a2.78,2.78,0,0,0,1.73-.61l11.34-9a3.55,3.55,0,0,0,1.26-3.56l-3.28-14.89a3.29,3.29,0,0,0-1.72-2.24l-10-5.1a3.27,3.27,0,0,0-3.15.09,39.44,39.44,0,0,1-14.06,5.25s-9.74,2.37-13.43-8.68,5.11-31.54,18.24-36.18,22.28,4,24.3,11.53c1.45,5.38-.84,11.07-2.25,13.84a7.26,7.26,0,0,0-.77,3.93l.4,4.6a2.82,2.82,0,0,0,1.41,2.22l11.69,6.69a1.37,1.37,0,0,0,1.87-.51L201.5,62.57a8.05,8.05,0,0,0,1.07-4v-5.2A4.22,4.22,0,0,0,201.36,50.39Z"/><path class="cls-1" d="M127.61,136.39l-.56-.19a4.68,4.68,0,0,0-4,.44l-16.25,9.94.21,35.5a2.16,2.16,0,0,0,2.16,2.15h1.33a2.78,2.78,0,0,0,2-.81l13.25-13.25a9,9,0,0,0,2.61-5.84l1.41-24.71A3.23,3.23,0,0,0,127.61,136.39Z"/><path class="cls-1" d="M156.48,128.23l-.46-.35a2.34,2.34,0,0,0-1.49-.47l-6.2.18a2.37,2.37,0,0,0-1,.23l-11.14,5.35a2.38,2.38,0,0,0-1.32,1.91l-2.15,24.64a2.35,2.35,0,0,0,2.34,2.55h3.32a2.41,2.41,0,0,0,1.3-.39l9.89-6.58a2.31,2.31,0,0,0,.92-1.17l6.89-19.5a2.48,2.48,0,0,0,.14-.89l-.16-3.74A2.34,2.34,0,0,0,156.48,128.23Z"/><rect class="cls-1" x="20.97" y="194.15" width="168.95" height="30.18"/><rect class="cls-1" x="15.03" y="193.74" width="3.03" height="31.19"/><rect class="cls-1" x="10.04" y="193.74" width="3.03" height="21.39"/><rect class="cls-1" x="5.35" y="193.74" width="3.03" height="14.85"/><rect class="cls-1" y="193.74" width="3.03" height="6.24"/><rect class="cls-1" x="192.83" y="193.74" width="3.03" height="31.19" transform="translate(388.69 418.66) rotate(-180)"/><rect class="cls-1" x="197.82" y="193.74" width="3.03" height="21.39" transform="translate(398.67 408.86) rotate(-180)"/><rect class="cls-1" x="202.51" y="193.74" width="3.03" height="14.85" transform="translate(408.06 402.33) rotate(-180)"/><rect class="cls-1" x="207.86" y="193.74" width="3.03" height="6.24" transform="translate(418.75 393.71) rotate(-180)"/><path class="cls-2" d="M29.13,202.83h5.21c2.82,0,4.31,1.47,4.31,3.58a2.88,2.88,0,0,1-1.88,2.93,3.56,3.56,0,0,1,2.36,3.51c0,2.73-2,4.26-4.93,4.26H29.13Zm4.75,5.76c1.77,0,2.51-.65,2.51-2s-.83-2-2.36-2H31.41v4Zm-2.47,6.74H34c1.57,0,2.75-.76,2.75-2.47s-1-2.47-3-2.47H31.41Z"/><path class="cls-2" d="M43.83,213.23l-1.19,3.88H40.35c.57-1.71,3.81-12.33,4.46-14.28h3l4.67,14.28H50l-1.25-3.88Zm4.43-2c-1-3.29-1.72-5.37-2-6.61h0c-.36,1.62-1.05,3.84-1.91,6.61Z"/><path class="cls-2" d="M54.33,217.11V202.83h3c4.92,9.41,5.65,10.8,5.88,11.46h0c-.14-1.8-.16-4.11-.16-6.44v-5h2.14v14.28H62.39c-5.26-10.25-5.74-11.28-6-11.85h0c.1,1.82.1,4.24.1,6.8v5.05Z"/><path class="cls-2" d="M68.61,202.83h2.27v6.88c1.53-1.85,4-4.85,5.7-6.88h2.77l-5.06,5.83,5.36,8.45H76.88l-4.18-6.9-1.8,1.93v5H68.61Z"/><path class="cls-2" d="M83.24,213.23l-1.19,3.88H79.76c.57-1.71,3.81-12.33,4.46-14.28h3l4.67,14.28H89.41l-1.25-3.88Zm4.43-2c-1-3.29-1.72-5.37-2-6.61h0c-.36,1.62-1.05,3.84-1.91,6.61Z"/><path class="cls-2" d="M96.06,202.83v14.28H93.74V202.83Z"/><path class="cls-2" d="M104.32,202.83h5c2.66,0,4.79,1.38,4.79,4.11s-2,4.33-5,4.33h-2.41v5.84h-2.32Zm2.32,6.57h2.28c1.71,0,2.8-.61,2.8-2.42,0-1.58-1.11-2.28-2.74-2.28h-2.34Z"/><path class="cls-2" d="M118.61,210.9v6.21h-2.29V202.83h5.37c2.61,0,4.43,1.3,4.43,3.77a3.24,3.24,0,0,1-2.27,3.34c1.45.51,2,1.65,2,3.52v.33a21.75,21.75,0,0,0,.19,3.32h-2.25a12.89,12.89,0,0,1-.25-3.34v-.33c0-1.84-.66-2.54-2.76-2.54Zm0-1.87H121c1.63,0,2.82-.47,2.82-2.26,0-1.42-1-2.07-2.42-2.07h-2.77Z"/><path class="cls-2" d="M140.37,209.89c0,4.15-1.92,7.43-6.21,7.43-4.12,0-6-3.22-6-7.44,0-3.69,1.92-7.25,6.21-7.25C138.42,202.63,140.37,205.87,140.37,209.89Zm-9.84,0c0,3.14,1.23,5.56,3.74,5.56,2.67,0,3.72-2.33,3.72-5.53,0-3-1.06-5.38-3.74-5.38S130.53,206.88,130.53,209.87Z"/><path class="cls-2" d="M146.34,212.8c0,2.68-.79,4.5-3.82,4.5a7.17,7.17,0,0,1-1.49-.13V215.3a8.38,8.38,0,0,0,1.19.07c1.55,0,1.8-1,1.8-2.5v-10h2.32Z"/><path class="cls-2" d="M158,210.62h-6.25v4.56h6.89l-.3,1.93h-8.86V202.83h8.79v1.94h-6.52v3.9H158Z"/><path class="cls-2" d="M171.58,212.8a5.08,5.08,0,0,1-5.41,4.52c-4.32,0-5.87-3.25-5.87-7.4,0-3.91,1.91-7.29,6-7.29,3.56,0,5,2.27,5.22,4.53h-2.29c-.31-1.39-1-2.62-3-2.62-2.57,0-3.52,2.57-3.52,5.38s.82,5.51,3.54,5.51c2,0,2.71-1.31,3.06-2.63Z"/><path class="cls-2" d="M176.74,204.78h-4v-1.95h10.33v1.95h-4v12.33h-2.34Z"/></g></g></svg>