<svg xmlns="http://www.w3.org/2000/svg" viewBox="0 0 194.25 184.23"><defs><style>.cls-1{fill:#e41c20;}</style></defs><g id="Capa_2" data-name="Capa 2"><g id="Capa_1-2" data-name="Capa 1"><path class="cls-1" d="M75.52,136.2l-.56.19a3.23,3.23,0,0,0-2.17,3.23l1.41,24.71a9,9,0,0,0,2.61,5.84l13.25,13.25a2.78,2.78,0,0,0,2,.81h1.33a2.16,2.16,0,0,0,2.16-2.15l.21-35.5-16.25-9.94A4.68,4.68,0,0,0,75.52,136.2Z"/><path class="cls-1" d="M66.33,133.17l-11.14-5.35a2.37,2.37,0,0,0-.95-.23l-6.2-.18a2.34,2.34,0,0,0-1.49.47l-.46.35a2.34,2.34,0,0,0-.93,1.77L45,133.74a2.48,2.48,0,0,0,.14.89L52,154.13A2.31,2.31,0,0,0,53,155.3l9.89,6.58a2.41,2.41,0,0,0,1.3.39h3.32a2.35,2.35,0,0,0,2.34-2.55l-2.15-24.64A2.38,2.38,0,0,0,66.33,133.17Z"/><path class="cls-1" d="M193,50.39,145,.88A3,3,0,0,0,142.91,0H51.34a2.93,2.93,0,0,0-2.09.88l-48,49.51a4.22,4.22,0,0,0-1.21,3v5.2a8.05,8.05,0,0,0,1.07,4L17.53,91.35a1.37,1.37,0,0,0,1.87.51l11.69-6.69A2.82,2.82,0,0,0,32.5,83l.4-4.6a7.35,7.35,0,0,0-.77-3.93c-1.41-2.77-3.7-8.46-2.25-13.84,2-7.49,11.17-16.16,24.3-11.53S76.1,74.18,72.42,85.23,59,93.91,59,93.91a39.44,39.44,0,0,1-14.06-5.25,3.27,3.27,0,0,0-3.15-.09l-10,5.1A3.29,3.29,0,0,0,30,95.91L26.74,110.8A3.55,3.55,0,0,0,28,114.36l11.34,9a2.78,2.78,0,0,0,1.73.61h12.4s12.4-.64,21.65,6.39a53.14,53.14,0,0,0,4.57,3.17L87.15,138a7.23,7.23,0,0,0,3.73,1h12.49a7.23,7.23,0,0,0,3.73-1l7.46-4.49a51.47,51.47,0,0,0,4.56-3.17c9.26-7,21.66-6.39,21.66-6.39h12.4a2.78,2.78,0,0,0,1.73-.61l11.34-9a3.59,3.59,0,0,0,1.26-3.56l-3.28-14.89a3.34,3.34,0,0,0-1.73-2.24l-10-5.1a3.27,3.27,0,0,0-3.15.09,39.44,39.44,0,0,1-14.06,5.25s-9.75,2.37-13.43-8.68,5.11-31.54,18.24-36.18,22.28,4,24.3,11.53c1.45,5.38-.85,11.07-2.25,13.84a7.26,7.26,0,0,0-.77,3.93l.39,4.6a2.83,2.83,0,0,0,1.42,2.22l11.69,6.69a1.37,1.37,0,0,0,1.87-.51l16.46-28.78a8.05,8.05,0,0,0,1.07-4v-5.2A4.27,4.27,0,0,0,193,50.39Z"/><path class="cls-1" d="M119.28,136.39l-.55-.19a4.68,4.68,0,0,0-4,.44l-16.26,9.94.21,35.5a2.17,2.17,0,0,0,2.17,2.15h1.33a2.8,2.8,0,0,0,2-.81l13.25-13.25a9,9,0,0,0,2.61-5.84l1.41-24.71A3.23,3.23,0,0,0,119.28,136.39Z"/><path class="cls-1" d="M148.16,128.23l-.47-.35a2.32,2.32,0,0,0-1.48-.47l-6.21.18a2.32,2.32,0,0,0-.94.23l-11.14,5.35a2.36,2.36,0,0,0-1.32,1.91l-2.15,24.64a2.34,2.34,0,0,0,2.33,2.55h3.33a2.41,2.41,0,0,0,1.3-.39l9.89-6.58a2.31,2.31,0,0,0,.92-1.17l6.89-19.5a2.27,2.27,0,0,0,.13-.89l-.15-3.74A2.34,2.34,0,0,0,148.16,128.23Z"/></g></g></svg>